<?xml version="1.0" encoding="utf-8"?>
<!-- Svg Vector Icons : http://www.onlinewebfonts.com/icon -->
<!DOCTYPE svg PUBLIC "-//W3C//DTD SVG 1.1//EN" "http://www.w3.org/Graphics/SVG/1.1/DTD/svg11.dtd">
<svg version="1.1" xmlns="http://www.w3.org/2000/svg" xmlns:xlink="http://www.w3.org/1999/xlink" x="0px" y="0px" viewBox="0 0 256 256" enable-background="new 0 0 256 256" xml:space="preserve">
<metadata> Svg Vector Icons : http://www.onlinewebfonts.com/icon </metadata>
<g><g><path fill="#000000" d="M246,142.7c0.5,23-16.5,32.5-30.5,43c-2.5,26-15.5,48-42,48.5c-0.5,0-0.5,0-1,0c-9,0-16-3-24.5-4.5c-9.5,4-15,11.5-24.5,14c-4,1-8,2-11.5,2c-20,0-32.5-17.5-41.5-31c-26.5-2.5-49.1-15.5-49.1-42.5c0-9,3.5-15.5,4.5-24.5c-3.5-8-11.5-15.5-14-24c-8.5-27,14.5-43.5,29.5-53c2-27.5,17-49.1,44-49.1c3.5,0,7.5,0.5,11.5,1c3,0.5,7.5,3,10.5,3h0.5c6.5-0.5,17.5-11.5,24.5-13.5c4-1.5,8-2,12-2c20.5,0,33.5,18.5,42,30.5c26.5,2,48.5,16.5,49,42.5c0,9-3,16.5-4.5,25.5C236.5,119.7,245.5,127.2,246,142.7z M220,106.7c0.5-4,1.5-7,2-10.5c1-4.5,2-8.5,2-13c-0.5-21.5-20.5-30.5-39.5-32c-3,0-5.5-2-7.5-4.5c-9.5-13.5-19-26-33-26c-2.5,0-5.5,0.5-8.5,1.5c-1.5,0.5-5.5,3-8,5c-6,4-12,8-18,8.5c-0.5,0-1,0-1.5,0c-4,0-7-1-10-2c-1-0.5-2-0.5-2.5-1c-3,0-6.5-0.5-9-0.5c-23,0-32.5,20.5-33.5,39.5c0,3-2,6-4.5,7.5c-19,12-30.5,24-25,41c1,3.5,3.5,7,6.5,11c2.5,4,5.5,7.5,7.5,12c0.5,1.5,1,3.5,0.5,5.5c-0.5,4-1.5,7.5-2.5,10.5c-1,4-2,8-2,12c0,25.5,27.5,31,39.5,32c3,0.5,6,2,7.5,4.5c8,12.5,18,26.5,32.5,26.5c2.5,0,5.5-0.5,8.5-1.5c3.5-1,6.5-3.5,10.5-6c3.5-2.5,7.5-5.5,12.5-7.5c1.5-0.5,2.5-1,4-1c0.5,0,1,0,1.5,0c4,0.5,7.5,1.5,10.5,2.5c4.5,1,8,2,12.5,2h0.5c25.5-0.5,30.5-27.5,31.5-39c0.5-3,1.5-5.5,4-7c1.5-1,3-2,4.5-3c14-10,22-16.5,21.5-31c0-7.5-3-12-7.5-18.5c-2-3.5-5-7.5-7-12C220,110.7,219.5,108.7,220,106.7z M163.4,188.8c-13.5,0-24-11-24-24c0-13.5,11-24,24-24c13.5,0,24,11,24,24C187.4,177.8,176.9,188.8,163.4,188.8z M163.4,151.3c-7.5,0-13.5,6-13.5,13.5c0,7.5,6,13.5,13.5,13.5c7.5,0,13.5-6,13.5-13.5S170.9,151.3,163.4,151.3z M90.4,176.3c-1,1-2.5,1.5-4,1.5s-2.5-0.5-4-1.5c-2-2-2-5.5,0-7.5l87.6-87.6c2-2,5.5-2,7.5,0s2,5.5,0,7.5L90.4,176.3z M98.9,118.2c-13.5,0-24-11-24-24c0-13.5,11-24,24-24c13.5,0,24,11,24,24C122.9,107.2,111.9,118.2,98.9,118.2z M98.9,80.7c-7.5,0-13.5,6-13.5,13.5s6,13.5,13.5,13.5c7.5,0,13.5-6,13.5-13.5S106.4,80.7,98.9,80.7z"/></g></g>
</svg>